<?xml version="1.0" encoding="UTF-8" standalone="no"?>
<svg
   xmlns:dc="http://purl.org/dc/elements/1.1/"
   xmlns:cc="http://creativecommons.org/ns#"
   xmlns:rdf="http://www.w3.org/1999/02/22-rdf-syntax-ns#"
   xmlns:svg="http://www.w3.org/2000/svg"
   xmlns="http://www.w3.org/2000/svg"
   viewBox="0 0 257.33334 257.33334"
   height="257.33334"
   width="257.33334"
   xml:space="preserve"
   id="svg2"
   version="1.1"><metadata
     id="metadata8"><rdf:RDF><cc:Work
         rdf:about=""><dc:format>image/svg+xml</dc:format><dc:type
           rdf:resource="http://purl.org/dc/dcmitype/StillImage" /></cc:Work></rdf:RDF></metadata><defs
     id="defs6" /><g
     transform="matrix(1.3333333,0,0,-1.3333333,0,257.33333)"
     id="g10"><g
       transform="scale(0.1)"
       id="g12"><path
         id="path14"
         style="fill:#ffffff;fill-opacity:1;fill-rule:evenodd;stroke:none"
         d="M 0,1927.56 H 1927.56 V 0 H 0 v 1927.56" /><path
         id="path16"
         style="fill:#f13e9f;fill-opacity:1;fill-rule:evenodd;stroke:none"
         d="m 1604.97,1223.01 h -77 v -171.62 h 77 c 26.62,0 48.74,2.88 66.76,8.61 18.02,5.32 31.94,14.75 41.36,27.44 9.42,12.7 13.93,29.08 13.93,49.97 0,24.98 -6.96,45.05 -21.71,60.61 -16.38,16.8 -49.97,24.99 -100.34,24.99 z m 27.44,-257.213 H 1527.97 V 806.473 c 0,-22.528 -5.33,-40.141 -15.97,-51.2 -10.66,-11.875 -24.58,-17.609 -40.55,-17.609 -17.2,0 -31.13,5.32 -41.78,17.199 -9.83,11.469 -15.56,28.668 -15.56,50.789 v 432.918 c 0,25.39 6.14,43.01 17.2,53.65 11.46,10.66 29.9,16.39 54.88,16.39 h 146.22 c 43,0 76.18,-3.69 99.52,-10.24 22.53,-6.15 42.6,-16.79 59.39,-31.95 16.8,-14.74 29.49,-32.76 38.09,-54.06 8.6,-21.71 13.11,-45.88 13.11,-72.5 0,-57.34 -17.61,-100.34 -52.84,-130.24 -35.63,-29.491 -87.64,-43.823 -157.27,-43.823" /><path
         id="path18"
         style="fill:#f13e9f;fill-opacity:1;fill-rule:evenodd;stroke:none"
         d="M 422.941,1220.55 H 198.492 V 1077.2 h 127.785 c 17.203,0 30.309,-4.1 38.911,-11.88 8.601,-7.78 12.695,-18.02 12.695,-31.53 0,-12.7 -4.094,-23.35 -12.695,-30.72 -9.012,-7.785 -21.708,-11.472 -38.911,-11.472 H 198.492 V 806.473 c 0,-23.348 -4.914,-40.961 -15.562,-52.016 -10.653,-11.473 -24.168,-16.793 -40.957,-16.793 -16.793,0 -30.309,5.32 -40.957,17.199 -10.6488,11.063 -15.9769,28.668 -15.9769,51.61 v 432.097 c 0,16.79 2.457,29.9 7.375,40.14 4.5039,10.24 12.2849,18.02 22.5269,22.93 10.239,4.51 23.754,6.97 39.727,6.97 h 268.273 c 18.024,0 31.536,-4.5 40.547,-12.29 8.598,-8.19 12.696,-18.43 12.696,-31.94 0,-13.11 -4.098,-23.76 -12.696,-31.54 -9.011,-8.2 -22.523,-12.29 -40.547,-12.29" /><path
         id="path20"
         style="fill:#f13e9f;fill-opacity:1;fill-rule:evenodd;stroke:none"
         d="M 710.457,1223.01 H 605.195 V 1068.6 h 101.989 c 27.441,0 49.968,2.04 68.808,6.96 18.43,4.51 33.176,13.11 43.004,24.17 9.828,11.46 14.332,27.03 14.332,47.1 0,15.56 -3.683,29.08 -11.875,41.36 -7.781,11.47 -18.43,20.48 -32.765,26.22 -13.516,5.73 -39.317,8.6 -78.231,8.6 z M 645.336,987.094 H 605.195 V 806.473 c 0,-23.348 -5.32,-40.961 -15.562,-52.016 -10.238,-11.473 -24.164,-16.793 -40.953,-16.793 -18.024,0 -32.36,5.734 -42.184,17.609 -9.836,11.059 -15.16,28.672 -15.16,51.2 v 432.097 c 0,24.57 5.734,42.6 16.387,53.65 11.054,10.66 29.078,16.39 53.652,16.39 H 746.5 c 25.395,0 47.102,-1.23 65.531,-3.69 18.024,-2.04 34.41,-6.14 48.742,-12.7 17.614,-7.78 33.176,-18.43 46.692,-31.94 13.515,-14.34 24.164,-29.9 30.715,-48.33 4.097,-10.65 6.965,-22.12 8.601,-33.59 l -2.457,-2.04 -6.965,-7.37 -6.55,-6.97 -6.145,-7.78 -6.141,-7.37 -5.734,-7.79 -5.324,-8.18 -5.324,-8.2 -4.914,-8.19 -4.918,-8.6 -4.508,-8.6 -4.09,-9.01 -3.691,-8.6 -4.09,-9.02 -3.282,-9.42 -3.273,-9.01 -2.871,-9.41 -2.863,-9.43 -2.457,-9.82 -1.231,-6.15 c -15.973,-6.96 -33.992,-12.7 -54.062,-17.2 20.07,-10.649 39.726,-26.216 58.16,-47.509 18.019,-20.89 34.402,-43.007 49.148,-66.765 14.332,-23.348 25.391,-45.051 33.582,-63.895 7.782,-19.246 12.285,-31.941 12.285,-38.906 0,-7.785 -2.453,-15.152 -7.367,-22.117 -4.508,-7.371 -11.062,-13.516 -19.25,-17.203 -8.601,-4.504 -18.019,-6.141 -28.261,-6.141 -12.696,0 -23.754,2.457 -32.36,9.008 -8.598,5.738 -15.969,13.105 -22.527,22.527 -6.141,9.012 -14.742,22.938 -25.391,40.547 l -45.461,75.774 c -16.386,27.851 -31.125,49.148 -43.824,63.89 -13.109,14.34 -25.805,24.164 -39.32,29.492 -13.11,5.325 -30.309,8.192 -49.969,8.192" /><path
         id="path22"
         style="fill:#8f9396;fill-opacity:1;fill-rule:evenodd;stroke:none"
         d="m 1229.8,1057.95 v 0 c -1.64,7.78 -4.92,15.15 -9.83,21.71 -4.51,6.14 -10.65,11.05 -18.43,13.92 -7.38,2.87 -16.39,3.69 -26.62,1.23 -76.6,-18.43 -90.93,-121.646 -80.28,-188.404 42.18,14.746 73.31,31.129 94.2,48.332 20.89,17.2 34,34.399 39.32,52.012 5.32,17.61 5.73,34.82 1.64,51.2 z m -53.66,51.19 c 34.41,7.79 63.49,6.97 86.42,-2.45 22.94,-9.42 37.68,-25.39 42.6,-47.51 4.09,-19.25 -2.46,-39.73 -19.25,-59.391 -17.2,-20.066 -41.78,-39.73 -74.13,-57.75 -32.77,-18.019 -70.86,-34.812 -114.27,-49.148 5.73,-25.391 14.33,-46.286 26.62,-61.848 26.21,-34.402 55.29,-38.906 91.33,-42.594 73.73,-7.371 149.91,56.11 182.67,136.801 v -75.367 c -3.68,-5.324 -7.37,-10.645 -11.46,-15.973 -81.92,-107.305 -329.71,-171.199 -373.54,21.707 v 0 c -25.388,115.91 56.94,227.313 163.01,253.523 z m 221.99,-31.53 c -0.41,0.41 -0.41,0.41 -0.41,0.82 -107.72,221.99 -406.294,138.44 -470.189,-9.83 -16.789,-38.5 -28.672,-81.92 -33.996,-126.561 l -0.406,0.82 -1.637,2.051 -1.64,2.047 -1.637,2.043 -1.641,2.051 -1.633,2.047 -2.05,2.043 -1.641,2.054 -1.637,2.047 -1.636,2.047 -1.641,2.051 -2.047,2.047 -1.641,2.047 -2.046,2.046 -1.637,2.047 -0.82,0.821 c 0.82,6.144 1.636,12.699 2.867,19.25 1.23,6.144 2.457,12.702 3.687,18.842 l 2.047,9.42 2.457,9.01 v 0 l 2.867,9.01 2.871,9.01 v 0 l 2.86,9.01 3.281,8.6 v 0 l 3.684,8.6 3.687,8.6 4.098,8.19 v 0 l 4.094,8.2 v 0 l 4.503,8.19 v 0 l 4.508,7.78 v 0 0 0.41 l 4.914,7.37 v 0 0 c 0.41,0 0.41,0 0.41,0.41 l 4.918,7.38 v 0 l 5.321,7.37 v 0 l 5.734,6.96 v 0 0 c 0,0.41 0.406,0.41 0.406,0.41 l 5.739,6.97 6.144,6.54 6.551,6.97 v 0 0 l 6.965,6.55 c 22.937,20.89 50.372,38.91 82.732,52.43 116.73,48.74 270.73,29.9 352.64,-79.05 v -67.17 z m -454.622,-346.094 -0.41,-0.403 -2.051,-0.824 -1.637,-0.82 -1.637,-1.227 -2.05,-0.816 -2.457,-0.821 -2.047,-0.824 -2.047,-0.816 -0.82,-0.41 c 28.671,-36.45 67.582,-65.942 117.548,-83.141 103.21,-35.223 244.51,-32.766 338.72,34.402 1.23,0.821 1.63,2.051 1.63,3.684 0,2.871 -2.04,5.324 -4.91,5.324 -1.23,0 -2.45,-0.406 -3.28,-1.226 v 0 c -106.08,-73.723 -296.94,-65.532 -398.099,12.289 -13.93,10.644 -26.215,22.527 -36.453,35.629" /></g></g></svg>